<svg xmlns="http://www.w3.org/2000/svg" viewBox="0 0 800 600"><defs><style>.cls-1,.cls-11{fill:none;}.cls-13,.cls-19,.cls-2{fill:#231f20;}.cls-10,.cls-3{fill:#b0282f;}.cls-11,.cls-12,.cls-13,.cls-14,.cls-15,.cls-16,.cls-17,.cls-3,.cls-5,.cls-6,.cls-7,.cls-8,.cls-9{stroke:#231f20;stroke-miterlimit:10;stroke-width:2px;}.cls-4{fill:#d2232a;}.cls-5{fill:#fff;}.cls-6{fill:#00aeef;}.cls-18,.cls-7{fill:#ed1c24;}.cls-8{fill:#fff200;}.cls-9{fill:#00a651;}.cls-12{fill:#39b54a;}.cls-14,.cls-20{fill:#58595b;}.cls-15{fill:#00a79d;}.cls-16{fill:#939598;}.cls-17{fill:#f1f2f2;}.cls-19{opacity:0.25;}</style></defs><g id="Layer_2" data-name="Layer 2"><g id="Layer_4" data-name="Layer 4"><rect class="cls-1" width="800" height="600"/><path class="cls-2" d="M533.25,38.5H275.75a20,20,0,0,0-15.91,7.81c-6.47,6.47-13.34,18-13.34,25.6V539.09c0,11.31,11,22.41,22.25,22.41h255.5c7.77,0,17.73-7.68,23.66-15.34a20.5,20.5,0,0,0,4.9-8.83,14.42,14.42,0,0,0,.69-4.24V58.91A20.35,20.35,0,0,0,533.25,38.5Z"/><path class="cls-3" d="M285,43.54l-12.29,1c-8.42,0-21.25,18.9-21.25,27.41V539.09c0,8.51,8.83,17.41,17.25,17.41h255.5c8.42,0,24.25-14.9,24.25-23.41V58.91A15.33,15.33,0,0,0,533.25,43.5"/><path class="cls-4" d="M533.25,43.5H275.75A15.33,15.33,0,0,0,260.5,58.91V532.09a15.33,15.33,0,0,0,15.25,15.41h257.5a15.33,15.33,0,0,0,15.25-15.41V58.91A15.33,15.33,0,0,0,533.25,43.5Z"/><circle class="cls-5" cx="301.61" cy="82.72" r="30.6"/><circle class="cls-6" cx="301.61" cy="82.72" r="24.16"/><ellipse class="cls-7" cx="345.54" cy="62.67" rx="7.53" ry="7.64"/><ellipse class="cls-8" cx="371.03" cy="62.67" rx="7.53" ry="7.64"/><ellipse class="cls-9" cx="396.52" cy="62.67" rx="7.53" ry="7.64"/><path class="cls-10" d="M548.5,75.75H442.6A18.07,18.07,0,0,0,431,80l-43.13,37.93a18.08,18.08,0,0,1-11.65,4.26H260.5v7.57H376.17a25.72,25.72,0,0,0,16.51-6l43.18-38a10.51,10.51,0,0,1,6.74-2.44H548.5Z"/><path class="cls-11" d="M260.5,122.19H376.17a18.08,18.08,0,0,0,11.65-4.26L431,80a18.07,18.07,0,0,1,11.65-4.25H548.5"/><path class="cls-11" d="M260.5,129.76H376.17a25.72,25.72,0,0,0,16.51-6l43.18-38a10.51,10.51,0,0,1,6.74-2.44H548.5"/><path class="cls-12" d="M429.89,475.17H333.57a6,6,0,0,0-6,6.07v42a6,6,0,0,0,6,6.07h96.32a6,6,0,0,0,6-6.07v-42A6,6,0,0,0,429.89,475.17Z"/><circle class="cls-13" cx="294.76" cy="452.86" r="17.38" transform="translate(-236.43 551.88) rotate(-67.5)"/><circle class="cls-14" cx="296.91" cy="450.71" r="17.38" transform="translate(-233.12 552.54) rotate(-67.5)"/><path class="cls-7" d="M330.69,455h39.1c2.16,0,3.91-2,3.91-4.52S372,446,369.79,446h-39.1c-2.16,0-3.91,2-3.91,4.51S328.53,455,330.69,455Z"/><path class="cls-15" d="M392.86,455H432c2.16,0,3.91-2,3.91-4.52S434.12,446,432,446h-39.1c-2.16,0-3.91,2-3.91,4.51S390.7,455,392.86,455Z"/><path class="cls-13" d="M529.15,469.38H506.5V446.74a1.74,1.74,0,0,0-1.73-1.74H487.43c-1,0-4.34,3.95-4.34,4.9v19.48h-20c-1,0-4.35,3.95-4.35,4.91v17.33a1.74,1.74,0,0,0,1.74,1.74h22.65V516a1.74,1.74,0,0,0,1.73,1.73h17.34c1,0,4.34-3.94,4.34-4.9V493.36h20c1,0,4.35-3.94,4.35-4.9V471.12A1.74,1.74,0,0,0,529.15,469.38Z"/><path class="cls-14" d="M529.15,469.38H506.5V446.74a1.74,1.74,0,0,0-1.73-1.74H487.43a1.74,1.74,0,0,0-1.74,1.74v22.64H463.05a1.74,1.74,0,0,0-1.74,1.74v17.34a1.73,1.73,0,0,0,1.74,1.73h22.64v22.65a1.74,1.74,0,0,0,1.74,1.74h17.34a1.74,1.74,0,0,0,1.73-1.74V490.19h22.65a1.73,1.73,0,0,0,1.74-1.73V471.12A1.74,1.74,0,0,0,529.15,469.38Z"/><circle class="cls-14" cx="496.1" cy="479.79" r="7.6"/><path class="cls-16" d="M523.6,138.4h-234a9.15,9.15,0,0,0-7.41,3.8l0,0c-2.54,1.52-5.25,6.3-5.25,9.48V391a8.72,8.72,0,0,0,2.54,6.15l25.66,26.73.3.27.71.73a8.61,8.61,0,0,0,6.13,2.55H519.59c3.17,0,7.94-2.71,9.45-5.26l0,0a9.21,9.21,0,0,0,3.77-7.42V147.6A9.2,9.2,0,0,0,523.6,138.4Z"/><path class="cls-17" d="M523.6,138.91h-234A8.68,8.68,0,0,0,281,147.6V388a8.68,8.68,0,0,0,2.54,6.14l25.66,26.74a8.66,8.66,0,0,0,6.13,2.54H523.6a8.69,8.69,0,0,0,8.68-8.69V147.6A8.69,8.69,0,0,0,523.6,138.91Z"/><ellipse class="cls-7" cx="325.58" cy="398.56" rx="12.66" ry="12.69"/><path class="cls-2" d="M461.84,388.7h52.28a1.25,1.25,0,0,0,0-2.5H461.84a1.24,1.24,0,0,0-1.23,1.27A1.23,1.23,0,0,0,461.84,388.7Z"/><path class="cls-2" d="M514.12,401.29H461.84a1.25,1.25,0,0,0,0,2.49h52.28a1.25,1.25,0,0,0,0-2.49Z"/><path class="cls-2" d="M514.12,408.83H461.84a1.25,1.25,0,0,0,0,2.49h52.28a1.25,1.25,0,0,0,0-2.49Z"/><path class="cls-2" d="M514.12,393.75H461.84a1.25,1.25,0,0,0,0,2.49h52.28a1.25,1.25,0,0,0,0-2.49Z"/><ellipse class="cls-18" cx="397.33" cy="146.29" rx="3.16" ry="3.17"/><ellipse class="cls-18" cx="415.91" cy="146.29" rx="3.16" ry="3.17"/><path class="cls-11" d="M533.25,43.5H275.75A15.33,15.33,0,0,0,260.5,58.91V532.09a15.33,15.33,0,0,0,15.25,15.41h257.5a15.33,15.33,0,0,0,15.25-15.41V58.91A15.33,15.33,0,0,0,533.25,43.5Z"/><rect class="cls-19" x="295.02" y="153.69" width="223.2" height="223.2"/><rect class="cls-20" x="298.62" y="157.29" width="216" height="216"/></g></g></svg>